<svg xmlns="http://www.w3.org/2000/svg" id="Group_128" width="31.4" height="27.475" data-name="Group 128" viewBox="0 0 31.4 27.475">
    <defs>
        <style>
            .cls-1{fill:#fff}.cls-2{fill:#5081ff}
        </style>
    </defs>
    <path id="comment-solid" d="M15.7 32C7.028 32 0 37.71 0 44.756a11.322 11.322 0 0 0 3.5 8.016 15.6 15.6 0 0 1-3.365 5.875.488.488 0 0 0-.092.534.48.48 0 0 0 .448.294 14.025 14.025 0 0 0 8.623-3.152 18.7 18.7 0 0 0 6.587 1.19c8.672 0 15.7-5.71 15.7-12.756S24.372 32 15.7 32z" class="cls-1" transform="translate(0 -32)"/>
    <path id="question-solid" d="M31.448 0a6.425 6.425 0 0 0-5.708 3.019.8.8 0 0 0 .172 1.09l1.431 1.085a.8.8 0 0 0 1.1-.138c.831-1.041 1.447-1.64 2.744-1.64 1.02 0 2.282.657 2.282 1.646 0 .748-.617 1.132-1.625 1.7-1.175.659-2.729 1.478-2.729 3.529v.325a.8.8 0 0 0 .8.8h2.4a.8.8 0 0 0 .8-.8v-.196c0-1.421 4.154-1.481 4.154-5.327C37.267 2.2 34.263 0 31.448 0zm-.332 12.385a2.3 2.3 0 1 0 2.3 2.3 2.3 2.3 0 0 0-2.301-2.3z" class="cls-2" transform="translate(-16.02 5.233)"/>
</svg>
