<svg xmlns="http://www.w3.org/2000/svg" width="21.857" height="24.979" viewBox="0 0 21.857 24.979">
    <defs>
        <style>
            .cls-1{fill:#5081ff}
        </style>
    </defs>
    <path id="user-regular" d="M15.3 14.831c-1.4 0-2.073.781-4.371.781s-2.966-.781-4.371-.781A6.559 6.559 0 0 0 0 21.389v1.249a2.342 2.342 0 0 0 2.342 2.342h17.173a2.342 2.342 0 0 0 2.342-2.342v-1.249a6.559 6.559 0 0 0-6.557-6.558zm4.215 7.806H2.342v-1.248a4.223 4.223 0 0 1 4.215-4.215c.712 0 1.869.781 4.371.781 2.522 0 3.654-.781 4.371-.781a4.223 4.223 0 0 1 4.215 4.215zm-8.587-8.587A7.025 7.025 0 1 0 3.9 7.025a7.027 7.027 0 0 0 7.028 7.026zm0-11.709a4.684 4.684 0 1 1-4.683 4.684 4.691 4.691 0 0 1 4.683-4.683z" class="cls-1"/>
</svg>
